<mxfile host="app.diagrams.net" modified="2020-09-22T06:46:56.357Z" agent="5.0 (Macintosh; Intel Mac OS X 10_15_4) AppleWebKit/537.36 (KHTML, like Gecko) Chrome/85.0.4183.102 Safari/537.36" etag="OwUp5Zo9dT5gHUk7HoOk" version="13.7.3" type="github">
  <diagram id="oud-pQtxVKAfsL59chiU" name="Page-1">
    <mxGraphModel dx="2052" dy="822" grid="1" gridSize="10" guides="1" tooltips="1" connect="1" arrows="1" fold="1" page="1" pageScale="1" pageWidth="2339" pageHeight="3300" math="0" shadow="0">
      <root>
        <mxCell id="0" />
        <mxCell id="1" parent="0" />
        <mxCell id="E7sqkTMcbo9Nke6ssPPl-1" value="Kafka" style="rounded=0;whiteSpace=wrap;html=1;fillColor=#ffe6cc;strokeColor=#d79b00;" vertex="1" parent="1">
          <mxGeometry x="550" y="620" width="60" height="80" as="geometry" />
        </mxCell>
        <mxCell id="E7sqkTMcbo9Nke6ssPPl-2" value="HBase" style="rounded=0;whiteSpace=wrap;html=1;fillColor=#ffe6cc;strokeColor=#d79b00;" vertex="1" parent="1">
          <mxGeometry x="822" y="620" width="172" height="50" as="geometry" />
        </mxCell>
        <mxCell id="E7sqkTMcbo9Nke6ssPPl-3" value="HDFS" style="rounded=0;whiteSpace=wrap;html=1;fillColor=#ffe6cc;strokeColor=#d79b00;" vertex="1" parent="1">
          <mxGeometry x="822" y="670" width="332" height="50" as="geometry" />
        </mxCell>
        <mxCell id="E7sqkTMcbo9Nke6ssPPl-4" value="Hive" style="rounded=0;whiteSpace=wrap;html=1;fillColor=#ffe6cc;strokeColor=#d79b00;" vertex="1" parent="1">
          <mxGeometry x="994" y="620" width="160" height="50" as="geometry" />
        </mxCell>
      </root>
    </mxGraphModel>
  </diagram>
</mxfile>
